<svg xmlns="http://www.w3.org/2000/svg" viewBox="0 0 753.85 700"><defs><style>.cls-1{fill:#8a5a44;}.cls-2{fill:#9d6b53;}.cls-3{fill:#b07d62;}.cls-4{fill:#c38e70;}.cls-5{fill:#cd9777;}.cls-6{fill:#d69f7e;}.cls-7{fill:#f96f5d;}.cls-8{fill:#d85b52;}</style></defs><g id="Isotipo"><g id="Shutter"><path class="cls-1" d="M423.92,245H83a310.83,310.83,0,0,1,55.56-96.31c3.08-3.66,6.24-7.25,9.54-10.77A312,312,0,0,1,308.67,45.41l61.74,107L378.29,166Z"/><path class="cls-2" d="M309.05,258.66l-45.64,79.06-7.87,13.63L202,444l-7.85,13.63-54.69,94.7a311.78,311.78,0,0,1-55.55-94.7c-1.66-4.5-3.22-9.05-4.64-13.63a312.17,312.17,0,0,1-.84-185.37Z"/><path class="cls-3" d="M432.12,657.22a314.63,314.63,0,0,1-55.2,4.88,310.77,310.77,0,0,1-52.72-4.47q-7.15-1.18-14.14-2.78a311.48,311.48,0,0,1-161-91.81L209.9,457.66,217.78,444l45.63-79,45.64,79,7.88,13.63,53.48,92.65,7.88,13.63Z"/><path class="cls-4" d="M670.14,458.06A311.42,311.42,0,0,1,616,550.72q-4.63,5.52-9.54,10.78A311.83,311.83,0,0,1,446,654.2L386.18,550l-7.85-13.65-45.44-79.13Z"/><path class="cls-5" d="M689,350a310.14,310.14,0,0,1-14.5,94h-227l45.63-79L501,351.35l53.51-92.69L562.4,245l54.51-94.4a311.17,311.17,0,0,1,54,94.4c1.64,4.49,3.16,9.05,4.53,13.62A310.45,310.45,0,0,1,689,350Z"/><path class="cls-6" d="M607.44,139.71,546.69,245l-7.87,13.63-45.61,79.07-45.66-79L439.67,245l-53.52-92.63-7.88-13.63L322.71,42.63a313.92,313.92,0,0,1,110.81.4c4.71.87,9.4,1.85,14,2.91A312.51,312.51,0,0,1,607.44,139.71Z"/></g><g id="PLAY"><path class="cls-7" d="M423.59,322c13.27,8.74-16.61,28.26-16.61,28.26h-.11L359.59,319l0,0c-1-.72-29.8-20.77-29.8-7.75V293.07c0-14.7,13.91-23.89,25-16.54Z"/><path class="cls-8" d="M329.81,311.19c0-13,28.77,7,29.8,7.75l0,0,0,0v62.55l47.31-31.28H407s29.88-19.52,16.61-28.26l17.74,11.72c11.12,7.36,11.12,25.73,0,33.08l-86.49,57.16c-11.12,7.36-25-1.83-25-16.53Z"/></g></g></svg>