<svg xmlns="http://www.w3.org/2000/svg" viewBox="0 0 1700 300"><defs><style>.cls-1{fill:#161616;}</style></defs><g id="Logotipo_blanco" data-name="Logotipo blanco"><path class="cls-1" d="M43.85,221.22v-20.3L127.56,100l3.86,11.41h-86V85.89H159.26v20.3L75.75,207.1l-3.87-11.4h90.28v25.52Z"/><path class="cls-1" d="M246.65,223.54A82.32,82.32,0,0,1,217,218.32a70.17,70.17,0,0,1-23.59-14.7,66.84,66.84,0,0,1-15.46-22.23,73.09,73.09,0,0,1,0-55.68,66.46,66.46,0,0,1,15.56-22.23,71.51,71.51,0,0,1,23.59-14.69,85.57,85.57,0,0,1,58.86,0,70.76,70.76,0,0,1,23.4,14.69,70.63,70.63,0,0,1,15.56,78,67.06,67.06,0,0,1-15.56,22.23,71.52,71.52,0,0,1-23.4,14.6A80.19,80.19,0,0,1,246.65,223.54Zm-.2-26.68a44,44,0,0,0,16.72-3.1,40.06,40.06,0,0,0,13.44-8.89,40.61,40.61,0,0,0,9-13.73,50.09,50.09,0,0,0,0-35.18,41.53,41.53,0,0,0-8.89-13.73,39.05,39.05,0,0,0-13.44-8.89,44.89,44.89,0,0,0-16.82-3.09,44.15,44.15,0,0,0-16.72,3.09,40.22,40.22,0,0,0-13.44,8.89,40.86,40.86,0,0,0-9,13.73,49.84,49.84,0,0,0,0,35.09,41.09,41.09,0,0,0,8.9,13.82,38.77,38.77,0,0,0,13.43,8.89A44.74,44.74,0,0,0,246.45,196.86Z"/><path class="cls-1" d="M409.81,223.54a82.23,82.23,0,0,1-29.67-5.22,70.17,70.17,0,0,1-23.59-14.7,67,67,0,0,1-15.47-22.23,73.09,73.09,0,0,1,0-55.68,66.48,66.48,0,0,1,15.57-22.23,71.57,71.57,0,0,1,23.58-14.69,85.6,85.6,0,0,1,58.87,0,70.72,70.72,0,0,1,23.39,14.69,70.67,70.67,0,0,1,15.57,78,66.94,66.94,0,0,1-15.57,22.23,71.48,71.48,0,0,1-23.39,14.6A80.21,80.21,0,0,1,409.81,223.54Zm-.19-26.68a44,44,0,0,0,16.72-3.1,40.06,40.06,0,0,0,13.44-8.89,40.76,40.76,0,0,0,9-13.73,50.09,50.09,0,0,0,0-35.18,41.56,41.56,0,0,0-8.9-13.73,38.92,38.92,0,0,0-13.43-8.89,45,45,0,0,0-16.82-3.09,44.15,44.15,0,0,0-16.72,3.09,40.12,40.12,0,0,0-13.44,8.89,40.71,40.71,0,0,0-9,13.73,49.84,49.84,0,0,0,0,35.09,41.22,41.22,0,0,0,8.89,13.82,38.72,38.72,0,0,0,13.44,8.89A44.7,44.7,0,0,0,409.62,196.86Z"/><path class="cls-1" d="M507.25,221.22V85.89h25.9l57.61,95.5H577l56.64-95.5h25.71l.39,135.33H630.4l-.2-90.29h5.42l-45.24,76H576.26l-46.2-76h6.57v90.29Z"/><path class="cls-1" d="M819.66,223.15A76.13,76.13,0,0,1,791.44,218a67.65,67.65,0,0,1-22.52-14.41,64.71,64.71,0,0,1-14.79-21.75,70.12,70.12,0,0,1-5.22-27.35,70.21,70.21,0,0,1,5.22-27.36A64.28,64.28,0,0,1,769,105.41,69.27,69.27,0,0,1,791.54,91a75.88,75.88,0,0,1,28.32-5.12,78,78,0,0,1,27.26,4.64,56.25,56.25,0,0,1,21.46,13.92L862.39,111A52.44,52.44,0,0,0,843,98.65,69.14,69.14,0,0,0,820.05,95a65.54,65.54,0,0,0-24.36,4.45A58.35,58.35,0,0,0,776.17,112a57,57,0,0,0-12.86,18.94,63.53,63.53,0,0,0,0,47.17,57,57,0,0,0,12.86,19,58.5,58.5,0,0,0,19.52,12.57,65.54,65.54,0,0,0,24.36,4.44,69.68,69.68,0,0,0,22.72-3.67,53.22,53.22,0,0,0,19.62-12.18l5.61,7.54a58.47,58.47,0,0,1-21.75,13.05A81.32,81.32,0,0,1,819.66,223.15Zm38.86-18.37V155.1H868v50.65Z"/><path class="cls-1" d="M911.3,222.18V86.85h48.52q17,0,29.2,5.42a41.93,41.93,0,0,1,18.75,15.56q6.57,10.15,6.57,24.65,0,14.11-6.57,24.26A42.51,42.51,0,0,1,989,172.4q-12.18,5.5-29.2,5.51H916.71l4.45-4.64v48.91Zm9.86-48.33-4.45-4.64h43.11q21.85,0,33.16-9.67t11.31-27.06q0-17.59-11.31-27.16t-33.16-9.57H916.71l4.45-4.84Zm84.1,48.33-35.19-49.1h11.21l35.19,49.1Z"/><path class="cls-1" d="M1027.87,222.18l62.25-135.33H1100l62.25,135.33H1151.6L1092.83,93h4.25l-58.57,129.14Zm22.82-38.08,3.28-8.32h81l3.29,8.32Z"/><path class="cls-1" d="M1186.78,222.18V86.85h48.53q17,0,29.19,5.42a41.93,41.93,0,0,1,18.75,15.56q6.57,10.15,6.58,24.65,0,14.11-6.58,24.36a41.75,41.75,0,0,1-18.75,15.66q-12.18,5.42-29.19,5.41H1192.2l4.44-4.64v48.91Zm9.86-48.33L1192.2,169h43.11q21.84,0,33.15-9.57t11.31-27q0-17.59-11.31-27.16t-33.15-9.57H1192.2l4.44-4.84Z"/><path class="cls-1" d="M1332.94,222.18h-9.86V86.85h9.86Zm91.63-64.38h-92.79v-8.69h92.79Zm-1.16-71h9.86V222.18h-9.86Z"/><path class="cls-1" d="M1480.45,222.18V86.85h9.85V222.18Z"/><path class="cls-1" d="M1522.45,220.65V43.25h37.29v177.4Zm30.84-26.3,1-45.43,60-56.9h44.47L1601.1,150.6l-19.36,15.78Zm65,26.3-43.52-54,23.43-28.92,65.27,83Z"/></g></svg>